# Blender v2.90.0 OBJ File: ''
# www.blender.org
mtllib cube5.mtl
o Cube.002
v -1.000000 1.000000 -1.000000
v -1.000000 -1.000000 1.000000
v -1.000000 1.000000 1.000000
v 1.000000 1.000000 -1.000000
v -1.000000 -1.000000 -1.000000
v 1.000000 1.000000 1.000000
v 1.000000 -1.000000 -1.000000
v 1.000000 -1.000000 1.000000
vt 1.000000 0.000000
vt 0.000000 1.000000
vt 0.000000 0.000000
vt 1.000000 0.000000
vt 0.000000 1.000000
vt 0.000000 0.000000
vt -1.000000 0.000000
vt 0.000000 1.000000
vt 0.000000 0.000000
vt -1.000000 0.000000
vt 0.000000 1.000000
vt 0.000000 0.000000
vt 0.000000 -1.000000
vt 1.000000 0.000000
vt 0.000000 0.000000
vt 0.000000 -1.000000
vt 1.000000 1.000000
vt 1.000000 1.000000
vt -1.000000 1.000000
vt -1.000000 1.000000
vt 1.000000 -1.000000
vt -1.000000 -1.000000
vn -1.0000 -0.0000 0.0000
vn 0.0000 0.0000 -1.0000
vn 1.0000 -0.0000 0.0000
vn 0.0000 -0.0000 1.0000
vn 0.0000 -1.0000 -0.0000
vn 0.0000 1.0000 0.0000
usemtl None
s 1
f 1/1/1 2/2/1 3/3/1
f 4/4/2 5/5/2 1/6/2
f 6/7/3 7/8/3 4/9/3
f 3/10/4 8/11/4 6/12/4
f 5/13/5 8/14/5 2/15/5
f 4/16/6 3/10/6 6/12/6
f 1/1/1 5/17/1 2/2/1
f 4/4/2 7/18/2 5/5/2
f 6/7/3 8/19/3 7/8/3
f 3/10/4 2/20/4 8/11/4
f 5/13/5 7/21/5 8/14/5
f 4/16/6 1/22/6 3/10/6
